<svg xmlns="http://www.w3.org/2000/svg" xmlns:xlink="http://www.w3.org/1999/xlink" width="1080" zoomAndPan="magnify" viewBox="0 0 810 809.999993" height="1080" preserveAspectRatio="xMidYMid meet" version="1.0"><defs><g/><clipPath id="d32714a65a"><rect x="0" width="542" y="0" height="106"/></clipPath><clipPath id="b4c768db4c"><rect x="0" width="57" y="0" height="107"/></clipPath><clipPath id="09aecba1a8"><rect x="0" width="371" y="0" height="40"/></clipPath></defs><g transform="matrix(1, 0, 0, 1, 135, 363)"><g clip-path="url(#d32714a65a)"><g fill="#f4f4ee" fill-opacity="1"><g transform="translate(0.525703, 80.694833)"><g><path d="M 5.484375 0 L 5.484375 -56.484375 L 28.15625 -56.484375 C 34.019531 -56.484375 38.5 -55.125 41.59375 -52.40625 C 44.6875 -49.6875 46.234375 -46.203125 46.234375 -41.953125 C 46.234375 -38.398438 45.273438 -35.5625 43.359375 -33.4375 C 41.453125 -31.320312 39.128906 -29.882812 36.390625 -29.125 C 39.617188 -28.476562 42.28125 -26.878906 44.375 -24.328125 C 46.476562 -21.773438 47.53125 -18.800781 47.53125 -15.40625 C 47.53125 -10.945312 45.914062 -7.265625 42.6875 -4.359375 C 39.457031 -1.453125 34.882812 0 28.96875 0 Z M 15.8125 -32.765625 L 26.625 -32.765625 C 29.53125 -32.765625 31.757812 -33.4375 33.3125 -34.78125 C 34.875 -36.125 35.65625 -38.03125 35.65625 -40.5 C 35.65625 -42.875 34.890625 -44.742188 33.359375 -46.109375 C 31.828125 -47.484375 29.53125 -48.171875 26.46875 -48.171875 L 15.8125 -48.171875 Z M 15.8125 -8.390625 L 27.359375 -8.390625 C 30.421875 -8.390625 32.796875 -9.101562 34.484375 -10.53125 C 36.179688 -11.957031 37.03125 -13.960938 37.03125 -16.546875 C 37.03125 -19.179688 36.140625 -21.25 34.359375 -22.75 C 32.585938 -24.257812 30.195312 -25.015625 27.1875 -25.015625 L 15.8125 -25.015625 Z M 15.8125 -8.390625 "/></g></g></g><g fill="#f4f4ee" fill-opacity="1"><g transform="translate(51.423466, 80.694833)"><g><path d="M 24.6875 0.96875 C 20.65625 0.96875 17.078125 0.109375 13.953125 -1.609375 C 10.835938 -3.335938 8.390625 -5.757812 6.609375 -8.875 C 4.835938 -12 3.953125 -15.601562 3.953125 -19.6875 C 3.953125 -23.832031 4.828125 -27.515625 6.578125 -30.734375 C 8.328125 -33.960938 10.75 -36.476562 13.84375 -38.28125 C 16.9375 -40.082031 20.578125 -40.984375 24.765625 -40.984375 C 28.691406 -40.984375 32.160156 -40.125 35.171875 -38.40625 C 38.191406 -36.6875 40.546875 -34.332031 42.234375 -31.34375 C 43.929688 -28.363281 44.78125 -25.039062 44.78125 -21.375 C 44.78125 -20.789062 44.765625 -20.175781 44.734375 -19.53125 C 44.710938 -18.882812 44.675781 -18.210938 44.625 -17.515625 L 14.203125 -17.515625 C 14.421875 -14.390625 15.507812 -11.9375 17.46875 -10.15625 C 19.425781 -8.382812 21.804688 -7.5 24.609375 -7.5 C 26.703125 -7.5 28.460938 -7.96875 29.890625 -8.90625 C 31.316406 -9.851562 32.378906 -11.082031 33.078125 -12.59375 L 43.578125 -12.59375 C 42.816406 -10.0625 41.5625 -7.757812 39.8125 -5.6875 C 38.070312 -3.613281 35.921875 -1.984375 33.359375 -0.796875 C 30.804688 0.378906 27.914062 0.96875 24.6875 0.96875 Z M 24.765625 -32.59375 C 22.242188 -32.59375 20.015625 -31.878906 18.078125 -30.453125 C 16.140625 -29.035156 14.898438 -26.875 14.359375 -23.96875 L 34.296875 -23.96875 C 34.128906 -26.601562 33.15625 -28.695312 31.375 -30.25 C 29.601562 -31.8125 27.398438 -32.59375 24.765625 -32.59375 Z M 24.765625 -32.59375 "/></g></g></g><g fill="#f4f4ee" fill-opacity="1"><g transform="translate(99.659398, 80.694833)"><g><path d="M 5.25 0 L 5.25 -40.015625 L 14.4375 -40.015625 L 15.40625 -32.515625 C 16.863281 -35.097656 18.84375 -37.15625 21.34375 -38.6875 C 23.84375 -40.21875 26.785156 -40.984375 30.171875 -40.984375 L 30.171875 -30.09375 L 27.265625 -30.09375 C 25.015625 -30.09375 23 -29.742188 21.21875 -29.046875 C 19.445312 -28.347656 18.0625 -27.132812 17.0625 -25.40625 C 16.070312 -23.6875 15.578125 -21.296875 15.578125 -18.234375 L 15.578125 0 Z M 5.25 0 "/></g></g></g><g fill="#f4f4ee" fill-opacity="1"><g transform="translate(131.601568, 80.694833)"><g><path d="M 23.078125 0 C 18.878906 0 15.515625 -1.019531 12.984375 -3.0625 C 10.460938 -5.101562 9.203125 -8.734375 9.203125 -13.953125 L 9.203125 -31.390625 L 2.34375 -31.390625 L 2.34375 -40.015625 L 9.203125 -40.015625 L 10.40625 -50.75 L 19.53125 -50.75 L 19.53125 -40.015625 L 30.34375 -40.015625 L 30.34375 -31.390625 L 19.53125 -31.390625 L 19.53125 -13.875 C 19.53125 -11.9375 19.945312 -10.601562 20.78125 -9.875 C 21.613281 -9.15625 23.050781 -8.796875 25.09375 -8.796875 L 30.09375 -8.796875 L 30.09375 0 Z M 23.078125 0 "/></g></g></g><g fill="#f4f4ee" fill-opacity="1"><g transform="translate(165.560293, 80.694833)"><g><path d="M 20.25 0.96875 C 15.25 0.96875 11.390625 -0.585938 8.671875 -3.703125 C 5.953125 -6.828125 4.59375 -11.398438 4.59375 -17.421875 L 4.59375 -40.015625 L 14.84375 -40.015625 L 14.84375 -18.390625 C 14.84375 -14.953125 15.539062 -12.316406 16.9375 -10.484375 C 18.34375 -8.660156 20.550781 -7.75 23.5625 -7.75 C 26.414062 -7.75 28.769531 -8.769531 30.625 -10.8125 C 32.476562 -12.851562 33.40625 -15.703125 33.40625 -19.359375 L 33.40625 -40.015625 L 43.734375 -40.015625 L 43.734375 0 L 34.609375 0 L 33.8125 -6.78125 C 32.570312 -4.414062 30.78125 -2.53125 28.4375 -1.125 C 26.101562 0.269531 23.375 0.96875 20.25 0.96875 Z M 20.25 0.96875 "/></g></g></g><g fill="#f4f4ee" fill-opacity="1"><g transform="translate(214.602832, 80.694833)"><g><path d="M 5.25 0 L 5.25 -40.015625 L 14.359375 -40.015625 L 15.25 -34.609375 C 16.539062 -36.546875 18.25 -38.09375 20.375 -39.25 C 22.5 -40.40625 24.957031 -40.984375 27.75 -40.984375 C 33.9375 -40.984375 38.320312 -38.59375 40.90625 -33.8125 C 42.363281 -36.007812 44.316406 -37.753906 46.765625 -39.046875 C 49.210938 -40.335938 51.882812 -40.984375 54.78125 -40.984375 C 60 -40.984375 64.003906 -39.421875 66.796875 -36.296875 C 69.597656 -33.179688 71 -28.613281 71 -22.59375 L 71 0 L 60.671875 0 L 60.671875 -21.625 C 60.671875 -25.0625 60.007812 -27.695312 58.6875 -29.53125 C 57.375 -31.363281 55.347656 -32.28125 52.609375 -32.28125 C 49.804688 -32.28125 47.554688 -31.253906 45.859375 -29.203125 C 44.171875 -27.160156 43.328125 -24.3125 43.328125 -20.65625 L 43.328125 0 L 33 0 L 33 -21.625 C 33 -25.0625 32.328125 -27.695312 30.984375 -29.53125 C 29.640625 -31.363281 27.566406 -32.28125 24.765625 -32.28125 C 22.023438 -32.28125 19.804688 -31.253906 18.109375 -29.203125 C 16.421875 -27.160156 15.578125 -24.3125 15.578125 -20.65625 L 15.578125 0 Z M 5.25 0 "/></g></g></g><g fill="#f4f4ee" fill-opacity="1"><g transform="translate(290.183194, 80.694833)"><g><path d="M 28.96875 0.96875 C 25.957031 0.96875 23.320312 0.40625 21.0625 -0.71875 C 18.800781 -1.851562 16.972656 -3.441406 15.578125 -5.484375 L 14.4375 0 L 5.25 0 L 5.25 -58.09375 L 15.578125 -58.09375 L 15.578125 -34.296875 C 16.867188 -36.066406 18.578125 -37.625 20.703125 -38.96875 C 22.828125 -40.3125 25.582031 -40.984375 28.96875 -40.984375 C 32.726562 -40.984375 36.085938 -40.066406 39.046875 -38.234375 C 42.003906 -36.410156 44.34375 -33.910156 46.0625 -30.734375 C 47.789062 -27.566406 48.65625 -23.96875 48.65625 -19.9375 C 48.65625 -15.894531 47.789062 -12.300781 46.0625 -9.15625 C 44.34375 -6.007812 42.003906 -3.535156 39.046875 -1.734375 C 36.085938 0.0664062 32.726562 0.96875 28.96875 0.96875 Z M 26.78125 -8.0625 C 30.0625 -8.0625 32.78125 -9.164062 34.9375 -11.375 C 37.09375 -13.582031 38.171875 -16.4375 38.171875 -19.9375 C 38.171875 -23.425781 37.09375 -26.300781 34.9375 -28.5625 C 32.78125 -30.820312 30.0625 -31.953125 26.78125 -31.953125 C 23.445312 -31.953125 20.71875 -30.832031 18.59375 -28.59375 C 16.46875 -26.363281 15.40625 -23.503906 15.40625 -20.015625 C 15.40625 -16.515625 16.46875 -13.644531 18.59375 -11.40625 C 20.71875 -9.175781 23.445312 -8.0625 26.78125 -8.0625 Z M 26.78125 -8.0625 "/></g></g></g><g fill="#f4f4ee" fill-opacity="1"><g transform="translate(342.774853, 80.694833)"><g><path d="M 24.453125 0.96875 C 20.578125 0.96875 17.09375 0.0820312 14 -1.6875 C 10.90625 -3.46875 8.457031 -5.929688 6.65625 -9.078125 C 4.851562 -12.222656 3.953125 -15.867188 3.953125 -20.015625 C 3.953125 -24.148438 4.863281 -27.789062 6.6875 -30.9375 C 8.519531 -34.082031 10.984375 -36.539062 14.078125 -38.3125 C 17.171875 -40.09375 20.65625 -40.984375 24.53125 -40.984375 C 28.351562 -40.984375 31.804688 -40.09375 34.890625 -38.3125 C 37.984375 -36.539062 40.429688 -34.082031 42.234375 -30.9375 C 44.035156 -27.789062 44.9375 -24.148438 44.9375 -20.015625 C 44.9375 -15.867188 44.035156 -12.222656 42.234375 -9.078125 C 40.429688 -5.929688 37.96875 -3.46875 34.84375 -1.6875 C 31.726562 0.0820312 28.265625 0.96875 24.453125 0.96875 Z M 24.453125 -7.984375 C 27.140625 -7.984375 29.476562 -8.992188 31.46875 -11.015625 C 33.457031 -13.035156 34.453125 -16.035156 34.453125 -20.015625 C 34.453125 -23.992188 33.457031 -26.988281 31.46875 -29 C 29.476562 -31.019531 27.164062 -32.03125 24.53125 -32.03125 C 21.78125 -32.03125 19.425781 -31.019531 17.46875 -29 C 15.507812 -26.988281 14.53125 -23.992188 14.53125 -20.015625 C 14.53125 -16.035156 15.507812 -13.035156 17.46875 -11.015625 C 19.425781 -8.992188 21.753906 -7.984375 24.453125 -7.984375 Z M 24.453125 -7.984375 "/></g></g></g><g fill="#f4f4ee" fill-opacity="1"><g transform="translate(391.656063, 80.694833)"><g><path d="M 24.453125 0.96875 C 20.578125 0.96875 17.09375 0.0820312 14 -1.6875 C 10.90625 -3.46875 8.457031 -5.929688 6.65625 -9.078125 C 4.851562 -12.222656 3.953125 -15.867188 3.953125 -20.015625 C 3.953125 -24.148438 4.863281 -27.789062 6.6875 -30.9375 C 8.519531 -34.082031 10.984375 -36.539062 14.078125 -38.3125 C 17.171875 -40.09375 20.65625 -40.984375 24.53125 -40.984375 C 28.351562 -40.984375 31.804688 -40.09375 34.890625 -38.3125 C 37.984375 -36.539062 40.429688 -34.082031 42.234375 -30.9375 C 44.035156 -27.789062 44.9375 -24.148438 44.9375 -20.015625 C 44.9375 -15.867188 44.035156 -12.222656 42.234375 -9.078125 C 40.429688 -5.929688 37.96875 -3.46875 34.84375 -1.6875 C 31.726562 0.0820312 28.265625 0.96875 24.453125 0.96875 Z M 24.453125 -7.984375 C 27.140625 -7.984375 29.476562 -8.992188 31.46875 -11.015625 C 33.457031 -13.035156 34.453125 -16.035156 34.453125 -20.015625 C 34.453125 -23.992188 33.457031 -26.988281 31.46875 -29 C 29.476562 -31.019531 27.164062 -32.03125 24.53125 -32.03125 C 21.78125 -32.03125 19.425781 -31.019531 17.46875 -29 C 15.507812 -26.988281 14.53125 -23.992188 14.53125 -20.015625 C 14.53125 -16.035156 15.507812 -13.035156 17.46875 -11.015625 C 19.425781 -8.992188 21.753906 -7.984375 24.453125 -7.984375 Z M 24.453125 -7.984375 "/></g></g></g><g fill="#f4f4ee" fill-opacity="1"><g transform="translate(440.537273, 80.694833)"><g><path d="M 21.78125 0.96875 C 18.226562 0.96875 15.109375 0.390625 12.421875 -0.765625 C 9.734375 -1.921875 7.582031 -3.519531 5.96875 -5.5625 C 4.351562 -7.613281 3.382812 -9.984375 3.0625 -12.671875 L 13.46875 -12.671875 C 13.789062 -11.109375 14.664062 -9.773438 16.09375 -8.671875 C 17.519531 -7.566406 19.363281 -7.015625 21.625 -7.015625 C 23.882812 -7.015625 25.535156 -7.472656 26.578125 -8.390625 C 27.628906 -9.304688 28.15625 -10.351562 28.15625 -11.53125 C 28.15625 -13.257812 27.398438 -14.429688 25.890625 -15.046875 C 24.390625 -15.660156 22.296875 -16.265625 19.609375 -16.859375 C 17.890625 -17.234375 16.140625 -17.691406 14.359375 -18.234375 C 12.585938 -18.773438 10.960938 -19.460938 9.484375 -20.296875 C 8.003906 -21.128906 6.804688 -22.203125 5.890625 -23.515625 C 4.972656 -24.835938 4.515625 -26.46875 4.515625 -28.40625 C 4.515625 -31.957031 5.925781 -34.941406 8.75 -37.359375 C 11.570312 -39.773438 15.539062 -40.984375 20.65625 -40.984375 C 25.382812 -40.984375 29.160156 -39.878906 31.984375 -37.671875 C 34.816406 -35.472656 36.5 -32.4375 37.03125 -28.5625 L 27.265625 -28.5625 C 26.679688 -31.519531 24.453125 -33 20.578125 -33 C 18.640625 -33 17.144531 -32.617188 16.09375 -31.859375 C 15.050781 -31.109375 14.53125 -30.171875 14.53125 -29.046875 C 14.53125 -27.859375 15.304688 -26.914062 16.859375 -26.21875 C 18.421875 -25.519531 20.492188 -24.875 23.078125 -24.28125 C 25.867188 -23.632812 28.4375 -22.921875 30.78125 -22.140625 C 33.125 -21.367188 34.992188 -20.210938 36.390625 -18.671875 C 37.785156 -17.140625 38.484375 -14.953125 38.484375 -12.109375 C 38.535156 -9.628906 37.890625 -7.394531 36.546875 -5.40625 C 35.203125 -3.414062 33.265625 -1.851562 30.734375 -0.71875 C 28.210938 0.40625 25.226562 0.96875 21.78125 0.96875 Z M 21.78125 0.96875 "/></g></g></g><g fill="#f4f4ee" fill-opacity="1"><g transform="translate(481.593781, 80.694833)"><g><path d="M 23.078125 0 C 18.878906 0 15.515625 -1.019531 12.984375 -3.0625 C 10.460938 -5.101562 9.203125 -8.734375 9.203125 -13.953125 L 9.203125 -31.390625 L 2.34375 -31.390625 L 2.34375 -40.015625 L 9.203125 -40.015625 L 10.40625 -50.75 L 19.53125 -50.75 L 19.53125 -40.015625 L 30.34375 -40.015625 L 30.34375 -31.390625 L 19.53125 -31.390625 L 19.53125 -13.875 C 19.53125 -11.9375 19.945312 -10.601562 20.78125 -9.875 C 21.613281 -9.15625 23.050781 -8.796875 25.09375 -8.796875 L 30.09375 -8.796875 L 30.09375 0 Z M 23.078125 0 "/></g></g></g><g fill="#f4f4ee" fill-opacity="1"><g transform="translate(515.552506, 80.694833)"><g><path d="M 7.421875 -17.828125 L 6.296875 -56.484375 L 17.34375 -56.484375 L 16.140625 -17.828125 Z M 12.015625 0.5625 C 10.085938 0.5625 8.515625 -0.0234375 7.296875 -1.203125 C 6.085938 -2.390625 5.484375 -3.816406 5.484375 -5.484375 C 5.484375 -7.203125 6.085938 -8.65625 7.296875 -9.84375 C 8.515625 -11.03125 10.085938 -11.625 12.015625 -11.625 C 13.847656 -11.625 15.367188 -11.03125 16.578125 -9.84375 C 17.785156 -8.65625 18.390625 -7.203125 18.390625 -5.484375 C 18.390625 -3.816406 17.785156 -2.390625 16.578125 -1.203125 C 15.367188 -0.0234375 13.847656 0.5625 12.015625 0.5625 Z M 12.015625 0.5625 "/></g></g></g></g></g><g transform="matrix(1, 0, 0, 1, 369, 301)"><g clip-path="url(#b4c768db4c)"><g fill="#f4f4ee" fill-opacity="1"><g transform="translate(0.922983, 81.34258)"><g><path d="M 4.359375 12.90625 L 4.359375 3.0625 L 50.59375 3.0625 L 50.59375 12.90625 Z M 4.359375 12.90625 "/></g></g></g></g></g><g transform="matrix(1, 0, 0, 1, 220, 464)"><g clip-path="url(#09aecba1a8)"><g fill="#f4f4ee" fill-opacity="1"><g transform="translate(0.151062, 29.885)"><g><path d="M 4.375 0 L 4.375 -18.515625 L 0.921875 -17.75 L 0.921875 -19.515625 L 5.21875 -21.390625 L 6.96875 -21.390625 L 6.96875 0 Z M 4.375 0 "/></g></g></g><g fill="#f4f4ee" fill-opacity="1"><g transform="translate(9.375055, 29.885)"><g><path d="M 7.90625 0.359375 C 6.09375 0.359375 4.585938 -0.09375 3.390625 -1 C 2.191406 -1.914062 1.488281 -3.160156 1.28125 -4.734375 L 3.90625 -4.734375 C 4.070312 -3.941406 4.492188 -3.253906 5.171875 -2.671875 C 5.859375 -2.085938 6.78125 -1.796875 7.9375 -1.796875 C 9.019531 -1.796875 9.816406 -2.023438 10.328125 -2.484375 C 10.835938 -2.941406 11.09375 -3.488281 11.09375 -4.125 C 11.09375 -5.039062 10.757812 -5.648438 10.09375 -5.953125 C 9.4375 -6.265625 8.503906 -6.539062 7.296875 -6.78125 C 6.484375 -6.945312 5.671875 -7.179688 4.859375 -7.484375 C 4.046875 -7.785156 3.363281 -8.21875 2.8125 -8.78125 C 2.257812 -9.34375 1.984375 -10.082031 1.984375 -11 C 1.984375 -12.320312 2.476562 -13.40625 3.46875 -14.25 C 4.457031 -15.09375 5.796875 -15.515625 7.484375 -15.515625 C 9.085938 -15.515625 10.40625 -15.113281 11.4375 -14.3125 C 12.46875 -13.507812 13.066406 -12.363281 13.234375 -10.875 L 10.6875 -10.875 C 10.582031 -11.644531 10.25 -12.25 9.6875 -12.6875 C 9.132812 -13.125 8.390625 -13.34375 7.453125 -13.34375 C 6.535156 -13.34375 5.828125 -13.148438 5.328125 -12.765625 C 4.828125 -12.378906 4.578125 -11.867188 4.578125 -11.234375 C 4.578125 -10.628906 4.894531 -10.148438 5.53125 -9.796875 C 6.175781 -9.453125 7.050781 -9.160156 8.15625 -8.921875 C 9.09375 -8.710938 9.984375 -8.460938 10.828125 -8.171875 C 11.671875 -7.878906 12.363281 -7.441406 12.90625 -6.859375 C 13.445312 -6.273438 13.71875 -5.4375 13.71875 -4.34375 C 13.738281 -2.976562 13.222656 -1.851562 12.171875 -0.96875 C 11.117188 -0.0820312 9.695312 0.359375 7.90625 0.359375 Z M 7.90625 0.359375 "/></g></g></g><g fill="#f4f4ee" fill-opacity="1"><g transform="translate(23.974578, 29.885)"><g><path d="M 8.09375 0 C 6.707031 0 5.617188 -0.332031 4.828125 -1 C 4.035156 -1.675781 3.640625 -2.890625 3.640625 -4.640625 L 3.640625 -12.984375 L 1.015625 -12.984375 L 1.015625 -15.15625 L 3.640625 -15.15625 L 3.96875 -18.78125 L 6.203125 -18.78125 L 6.203125 -15.15625 L 10.65625 -15.15625 L 10.65625 -12.984375 L 6.203125 -12.984375 L 6.203125 -4.640625 C 6.203125 -3.679688 6.394531 -3.035156 6.78125 -2.703125 C 7.164062 -2.367188 7.847656 -2.203125 8.828125 -2.203125 L 10.421875 -2.203125 L 10.421875 0 Z M 8.09375 0 "/></g></g></g><g fill="#f4f4ee" fill-opacity="1"><g transform="translate(35.794729, 29.885)"><g/></g></g><g fill="#f4f4ee" fill-opacity="1"><g transform="translate(43.888633, 29.885)"><g><path d="M 11.640625 0.359375 C 9.535156 0.359375 7.722656 -0.0976562 6.203125 -1.015625 C 4.691406 -1.941406 3.519531 -3.234375 2.6875 -4.890625 C 1.851562 -6.554688 1.4375 -8.488281 1.4375 -10.6875 C 1.4375 -12.863281 1.851562 -14.78125 2.6875 -16.4375 C 3.519531 -18.101562 4.691406 -19.40625 6.203125 -20.34375 C 7.722656 -21.28125 9.535156 -21.75 11.640625 -21.75 C 14.078125 -21.75 16.066406 -21.160156 17.609375 -19.984375 C 19.148438 -18.816406 20.132812 -17.1875 20.5625 -15.09375 L 17.71875 -15.09375 C 17.394531 -16.414062 16.726562 -17.476562 15.71875 -18.28125 C 14.707031 -19.082031 13.347656 -19.484375 11.640625 -19.484375 C 10.109375 -19.484375 8.769531 -19.128906 7.625 -18.421875 C 6.488281 -17.722656 5.609375 -16.71875 4.984375 -15.40625 C 4.367188 -14.09375 4.0625 -12.519531 4.0625 -10.6875 C 4.0625 -8.851562 4.367188 -7.28125 4.984375 -5.96875 C 5.609375 -4.65625 6.488281 -3.644531 7.625 -2.9375 C 8.769531 -2.238281 10.109375 -1.890625 11.640625 -1.890625 C 13.347656 -1.890625 14.707031 -2.28125 15.71875 -3.0625 C 16.726562 -3.851562 17.394531 -4.898438 17.71875 -6.203125 L 20.5625 -6.203125 C 20.132812 -4.140625 19.148438 -2.53125 17.609375 -1.375 C 16.066406 -0.21875 14.078125 0.359375 11.640625 0.359375 Z M 11.640625 0.359375 "/></g></g></g><g fill="#f4f4ee" fill-opacity="1"><g transform="translate(65.87962, 29.885)"><g><path d="M 7.140625 0.359375 C 5.878906 0.359375 4.832031 0.144531 4 -0.28125 C 3.164062 -0.707031 2.546875 -1.273438 2.140625 -1.984375 C 1.734375 -2.703125 1.53125 -3.476562 1.53125 -4.3125 C 1.53125 -5.851562 2.117188 -7.039062 3.296875 -7.875 C 4.484375 -8.71875 6.09375 -9.140625 8.125 -9.140625 L 12.21875 -9.140625 L 12.21875 -9.3125 C 12.21875 -10.632812 11.867188 -11.632812 11.171875 -12.3125 C 10.484375 -13 9.5625 -13.34375 8.40625 -13.34375 C 7.40625 -13.34375 6.539062 -13.09375 5.8125 -12.59375 C 5.09375 -12.101562 4.640625 -11.378906 4.453125 -10.421875 L 1.828125 -10.421875 C 1.929688 -11.515625 2.300781 -12.4375 2.9375 -13.1875 C 3.582031 -13.945312 4.382812 -14.523438 5.34375 -14.921875 C 6.300781 -15.316406 7.320312 -15.515625 8.40625 -15.515625 C 10.519531 -15.515625 12.109375 -14.945312 13.171875 -13.8125 C 14.242188 -12.6875 14.78125 -11.1875 14.78125 -9.3125 L 14.78125 0 L 12.5 0 L 12.34375 -2.71875 C 11.914062 -1.863281 11.285156 -1.132812 10.453125 -0.53125 C 9.628906 0.0625 8.523438 0.359375 7.140625 0.359375 Z M 7.546875 -1.796875 C 8.523438 -1.796875 9.363281 -2.050781 10.0625 -2.5625 C 10.769531 -3.070312 11.304688 -3.734375 11.671875 -4.546875 C 12.035156 -5.359375 12.21875 -6.21875 12.21875 -7.125 L 12.21875 -7.140625 L 8.34375 -7.140625 C 6.832031 -7.140625 5.765625 -6.878906 5.140625 -6.359375 C 4.523438 -5.847656 4.21875 -5.203125 4.21875 -4.421875 C 4.21875 -3.628906 4.503906 -2.992188 5.078125 -2.515625 C 5.660156 -2.035156 6.484375 -1.796875 7.546875 -1.796875 Z M 7.546875 -1.796875 "/></g></g></g><g fill="#f4f4ee" fill-opacity="1"><g transform="translate(82.403402, 29.885)"><g><path d="M 2.109375 0 L 2.109375 -15.15625 L 4.421875 -15.15625 L 4.609375 -12.953125 C 5.097656 -13.765625 5.75 -14.394531 6.5625 -14.84375 C 7.382812 -15.289062 8.300781 -15.515625 9.3125 -15.515625 C 10.519531 -15.515625 11.554688 -15.269531 12.421875 -14.78125 C 13.285156 -14.289062 13.953125 -13.550781 14.421875 -12.5625 C 14.953125 -13.46875 15.675781 -14.1875 16.59375 -14.71875 C 17.519531 -15.25 18.523438 -15.515625 19.609375 -15.515625 C 21.421875 -15.515625 22.863281 -14.96875 23.9375 -13.875 C 25.019531 -12.789062 25.5625 -11.117188 25.5625 -8.859375 L 25.5625 0 L 23.03125 0 L 23.03125 -8.578125 C 23.03125 -10.148438 22.710938 -11.332031 22.078125 -12.125 C 21.453125 -12.914062 20.546875 -13.3125 19.359375 -13.3125 C 18.140625 -13.3125 17.128906 -12.835938 16.328125 -11.890625 C 15.523438 -10.953125 15.125 -9.601562 15.125 -7.84375 L 15.125 0 L 12.5625 0 L 12.5625 -8.578125 C 12.5625 -10.148438 12.242188 -11.332031 11.609375 -12.125 C 10.972656 -12.914062 10.066406 -13.3125 8.890625 -13.3125 C 7.691406 -13.3125 6.6875 -12.835938 5.875 -11.890625 C 5.070312 -10.953125 4.671875 -9.601562 4.671875 -7.84375 L 4.671875 0 Z M 2.109375 0 "/></g></g></g><g fill="#f4f4ee" fill-opacity="1"><g transform="translate(109.739416, 29.885)"><g><path d="M 2.109375 6.71875 L 2.109375 -15.15625 L 4.421875 -15.15625 L 4.671875 -12.640625 C 5.160156 -13.378906 5.859375 -14.039062 6.765625 -14.625 C 7.671875 -15.21875 8.828125 -15.515625 10.234375 -15.515625 C 11.742188 -15.515625 13.054688 -15.164062 14.171875 -14.46875 C 15.296875 -13.78125 16.164062 -12.835938 16.78125 -11.640625 C 17.40625 -10.441406 17.71875 -9.078125 17.71875 -7.546875 C 17.71875 -6.015625 17.40625 -4.65625 16.78125 -3.46875 C 16.164062 -2.28125 15.289062 -1.34375 14.15625 -0.65625 C 13.03125 0.0195312 11.710938 0.359375 10.203125 0.359375 C 8.960938 0.359375 7.859375 0.109375 6.890625 -0.390625 C 5.921875 -0.898438 5.179688 -1.613281 4.671875 -2.53125 L 4.671875 6.71875 Z M 9.921875 -1.859375 C 10.941406 -1.859375 11.835938 -2.097656 12.609375 -2.578125 C 13.390625 -3.054688 14.003906 -3.722656 14.453125 -4.578125 C 14.898438 -5.429688 15.125 -6.429688 15.125 -7.578125 C 15.125 -8.710938 14.898438 -9.707031 14.453125 -10.5625 C 14.003906 -11.425781 13.390625 -12.09375 12.609375 -12.5625 C 11.835938 -13.039062 10.941406 -13.28125 9.921875 -13.28125 C 8.910156 -13.28125 8.015625 -13.039062 7.234375 -12.5625 C 6.460938 -12.09375 5.851562 -11.425781 5.40625 -10.5625 C 4.957031 -9.707031 4.734375 -8.710938 4.734375 -7.578125 C 4.734375 -6.429688 4.957031 -5.429688 5.40625 -4.578125 C 5.851562 -3.722656 6.460938 -3.054688 7.234375 -2.578125 C 8.015625 -2.097656 8.910156 -1.859375 9.921875 -1.859375 Z M 9.921875 -1.859375 "/></g></g></g><g fill="#f4f4ee" fill-opacity="1"><g transform="translate(128.92044, 29.885)"><g/></g></g><g fill="#f4f4ee" fill-opacity="1"><g transform="translate(137.014353, 29.885)"><g><path d="M 8.09375 0 C 6.707031 0 5.617188 -0.332031 4.828125 -1 C 4.035156 -1.675781 3.640625 -2.890625 3.640625 -4.640625 L 3.640625 -12.984375 L 1.015625 -12.984375 L 1.015625 -15.15625 L 3.640625 -15.15625 L 3.96875 -18.78125 L 6.203125 -18.78125 L 6.203125 -15.15625 L 10.65625 -15.15625 L 10.65625 -12.984375 L 6.203125 -12.984375 L 6.203125 -4.640625 C 6.203125 -3.679688 6.394531 -3.035156 6.78125 -2.703125 C 7.164062 -2.367188 7.847656 -2.203125 8.828125 -2.203125 L 10.421875 -2.203125 L 10.421875 0 Z M 8.09375 0 "/></g></g></g><g fill="#f4f4ee" fill-opacity="1"><g transform="translate(148.406864, 29.885)"><g><path d="M 9.015625 0.359375 C 7.585938 0.359375 6.300781 0.0351562 5.15625 -0.609375 C 4.019531 -1.265625 3.117188 -2.1875 2.453125 -3.375 C 1.796875 -4.5625 1.46875 -5.960938 1.46875 -7.578125 C 1.46875 -9.179688 1.800781 -10.578125 2.46875 -11.765625 C 3.144531 -12.960938 4.054688 -13.882812 5.203125 -14.53125 C 6.359375 -15.1875 7.648438 -15.515625 9.078125 -15.515625 C 10.492188 -15.515625 11.769531 -15.1875 12.90625 -14.53125 C 14.050781 -13.882812 14.957031 -12.960938 15.625 -11.765625 C 16.289062 -10.578125 16.625 -9.179688 16.625 -7.578125 C 16.625 -5.960938 16.285156 -4.5625 15.609375 -3.375 C 14.929688 -2.1875 14.019531 -1.265625 12.875 -0.609375 C 11.726562 0.0351562 10.441406 0.359375 9.015625 0.359375 Z M 9.015625 -1.828125 C 9.890625 -1.828125 10.703125 -2.039062 11.453125 -2.46875 C 12.203125 -2.894531 12.8125 -3.535156 13.28125 -4.390625 C 13.75 -5.253906 13.984375 -6.316406 13.984375 -7.578125 C 13.984375 -8.835938 13.753906 -9.894531 13.296875 -10.75 C 12.835938 -11.601562 12.234375 -12.242188 11.484375 -12.671875 C 10.734375 -13.097656 9.929688 -13.3125 9.078125 -13.3125 C 8.203125 -13.3125 7.382812 -13.097656 6.625 -12.671875 C 5.875 -12.242188 5.265625 -11.601562 4.796875 -10.75 C 4.328125 -9.894531 4.09375 -8.835938 4.09375 -7.578125 C 4.09375 -6.316406 4.328125 -5.253906 4.796875 -4.390625 C 5.265625 -3.535156 5.867188 -2.894531 6.609375 -2.46875 C 7.359375 -2.039062 8.160156 -1.828125 9.015625 -1.828125 Z M 9.015625 -1.828125 "/></g></g></g><g fill="#f4f4ee" fill-opacity="1"><g transform="translate(166.488342, 29.885)"><g/></g></g><g fill="#f4f4ee" fill-opacity="1"><g transform="translate(174.582255, 29.885)"><g><path d="M 11.453125 0.359375 C 9.460938 0.359375 7.710938 -0.0976562 6.203125 -1.015625 C 4.691406 -1.941406 3.519531 -3.234375 2.6875 -4.890625 C 1.851562 -6.554688 1.4375 -8.476562 1.4375 -10.65625 C 1.4375 -12.832031 1.859375 -14.753906 2.703125 -16.421875 C 3.546875 -18.097656 4.742188 -19.40625 6.296875 -20.34375 C 7.859375 -21.28125 9.703125 -21.75 11.828125 -21.75 C 14.222656 -21.75 16.21875 -21.164062 17.8125 -20 C 19.414062 -18.84375 20.453125 -17.25 20.921875 -15.21875 L 17.96875 -15.21875 C 17.675781 -16.5 16.992188 -17.515625 15.921875 -18.265625 C 14.859375 -19.015625 13.492188 -19.390625 11.828125 -19.390625 C 10.253906 -19.390625 8.882812 -19.039062 7.71875 -18.34375 C 6.5625 -17.644531 5.660156 -16.640625 5.015625 -15.328125 C 4.378906 -14.023438 4.0625 -12.46875 4.0625 -10.65625 C 4.0625 -8.84375 4.375 -7.285156 5 -5.984375 C 5.632812 -4.679688 6.507812 -3.675781 7.625 -2.96875 C 8.75 -2.269531 10.054688 -1.921875 11.546875 -1.921875 C 13.828125 -1.921875 15.546875 -2.585938 16.703125 -3.921875 C 17.867188 -5.253906 18.53125 -7.082031 18.6875 -9.40625 L 12.53125 -9.40625 L 12.53125 -11.421875 L 21.328125 -11.421875 L 21.328125 0 L 18.96875 0 L 18.75 -3.515625 C 17.976562 -2.273438 17.03125 -1.316406 15.90625 -0.640625 C 14.789062 0.0234375 13.304688 0.359375 11.453125 0.359375 Z M 11.453125 0.359375 "/></g></g></g><g fill="#f4f4ee" fill-opacity="1"><g transform="translate(197.703322, 29.885)"><g><path d="M 2.109375 0 L 2.109375 -15.15625 L 4.421875 -15.15625 L 4.640625 -12.25 C 5.109375 -13.25 5.820312 -14.039062 6.78125 -14.625 C 7.738281 -15.21875 8.921875 -15.515625 10.328125 -15.515625 L 10.328125 -12.828125 L 9.625 -12.828125 C 8.726562 -12.828125 7.898438 -12.664062 7.140625 -12.34375 C 6.390625 -12.03125 5.789062 -11.5 5.34375 -10.75 C 4.894531 -10 4.671875 -8.960938 4.671875 -7.640625 L 4.671875 0 Z M 2.109375 0 "/></g></g></g><g fill="#f4f4ee" fill-opacity="1"><g transform="translate(208.210091, 29.885)"><g><path d="M 9.015625 0.359375 C 7.585938 0.359375 6.300781 0.0351562 5.15625 -0.609375 C 4.019531 -1.265625 3.117188 -2.1875 2.453125 -3.375 C 1.796875 -4.5625 1.46875 -5.960938 1.46875 -7.578125 C 1.46875 -9.179688 1.800781 -10.578125 2.46875 -11.765625 C 3.144531 -12.960938 4.054688 -13.882812 5.203125 -14.53125 C 6.359375 -15.1875 7.648438 -15.515625 9.078125 -15.515625 C 10.492188 -15.515625 11.769531 -15.1875 12.90625 -14.53125 C 14.050781 -13.882812 14.957031 -12.960938 15.625 -11.765625 C 16.289062 -10.578125 16.625 -9.179688 16.625 -7.578125 C 16.625 -5.960938 16.285156 -4.5625 15.609375 -3.375 C 14.929688 -2.1875 14.019531 -1.265625 12.875 -0.609375 C 11.726562 0.0351562 10.441406 0.359375 9.015625 0.359375 Z M 9.015625 -1.828125 C 9.890625 -1.828125 10.703125 -2.039062 11.453125 -2.46875 C 12.203125 -2.894531 12.8125 -3.535156 13.28125 -4.390625 C 13.75 -5.253906 13.984375 -6.316406 13.984375 -7.578125 C 13.984375 -8.835938 13.753906 -9.894531 13.296875 -10.75 C 12.835938 -11.601562 12.234375 -12.242188 11.484375 -12.671875 C 10.734375 -13.097656 9.929688 -13.3125 9.078125 -13.3125 C 8.203125 -13.3125 7.382812 -13.097656 6.625 -12.671875 C 5.875 -12.242188 5.265625 -11.601562 4.796875 -10.75 C 4.328125 -9.894531 4.09375 -8.835938 4.09375 -7.578125 C 4.09375 -6.316406 4.328125 -5.253906 4.796875 -4.390625 C 5.265625 -3.535156 5.867188 -2.894531 6.609375 -2.46875 C 7.359375 -2.039062 8.160156 -1.828125 9.015625 -1.828125 Z M 9.015625 -1.828125 "/></g></g></g><g fill="#f4f4ee" fill-opacity="1"><g transform="translate(225.711218, 29.885)"><g><path d="M 5.15625 0 L 0.734375 -15.15625 L 3.296875 -15.15625 L 6.5 -3.265625 L 10.046875 -15.15625 L 12.953125 -15.15625 L 16.53125 -3.265625 L 19.703125 -15.15625 L 22.296875 -15.15625 L 17.875 0 L 15.25 0 L 11.515625 -12.5 L 7.796875 0 Z M 5.15625 0 "/></g></g></g><g fill="#f4f4ee" fill-opacity="1"><g transform="translate(248.740674, 29.885)"><g/></g></g><g fill="#f4f4ee" fill-opacity="1"><g transform="translate(256.834571, 29.885)"><g><path d="M 2.265625 0 L 2.265625 -21.390625 L 9.78125 -21.390625 C 11.28125 -21.390625 12.523438 -21.148438 13.515625 -20.671875 C 14.503906 -20.191406 15.242188 -19.535156 15.734375 -18.703125 C 16.222656 -17.878906 16.46875 -16.960938 16.46875 -15.953125 C 16.46875 -14.566406 16.09375 -13.472656 15.34375 -12.671875 C 14.601562 -11.878906 13.710938 -11.332031 12.671875 -11.03125 C 13.472656 -10.882812 14.195312 -10.566406 14.84375 -10.078125 C 15.5 -9.585938 16.015625 -8.972656 16.390625 -8.234375 C 16.765625 -7.503906 16.953125 -6.703125 16.953125 -5.828125 C 16.953125 -4.753906 16.6875 -3.773438 16.15625 -2.890625 C 15.625 -2.003906 14.835938 -1.300781 13.796875 -0.78125 C 12.765625 -0.257812 11.503906 0 10.015625 0 Z M 4.828125 -12.03125 L 9.59375 -12.03125 C 10.957031 -12.03125 12.003906 -12.347656 12.734375 -12.984375 C 13.472656 -13.628906 13.84375 -14.523438 13.84375 -15.671875 C 13.84375 -16.753906 13.476562 -17.617188 12.75 -18.265625 C 12.03125 -18.921875 10.945312 -19.25 9.5 -19.25 L 4.828125 -19.25 Z M 4.828125 -2.140625 L 9.75 -2.140625 C 11.207031 -2.140625 12.332031 -2.476562 13.125 -3.15625 C 13.925781 -3.84375 14.328125 -4.796875 14.328125 -6.015625 C 14.328125 -7.210938 13.910156 -8.171875 13.078125 -8.890625 C 12.242188 -9.617188 11.113281 -9.984375 9.6875 -9.984375 L 4.828125 -9.984375 Z M 4.828125 -2.140625 "/></g></g></g><g fill="#f4f4ee" fill-opacity="1"><g transform="translate(275.221472, 29.885)"><g><path d="M 8.921875 0.359375 C 7.472656 0.359375 6.1875 0.03125 5.0625 -0.625 C 3.945312 -1.289062 3.066406 -2.210938 2.421875 -3.390625 C 1.785156 -4.566406 1.46875 -5.960938 1.46875 -7.578125 C 1.46875 -9.160156 1.78125 -10.546875 2.40625 -11.734375 C 3.039062 -12.929688 3.921875 -13.859375 5.046875 -14.515625 C 6.179688 -15.179688 7.492188 -15.515625 8.984375 -15.515625 C 10.453125 -15.515625 11.71875 -15.179688 12.78125 -14.515625 C 13.851562 -13.859375 14.671875 -12.988281 15.234375 -11.90625 C 15.804688 -10.832031 16.09375 -9.675781 16.09375 -8.4375 C 16.09375 -8.207031 16.085938 -7.976562 16.078125 -7.75 C 16.066406 -7.53125 16.0625 -7.28125 16.0625 -7 L 4 -7 C 4.0625 -5.832031 4.332031 -4.867188 4.8125 -4.109375 C 5.289062 -3.347656 5.890625 -2.769531 6.609375 -2.375 C 7.335938 -1.988281 8.109375 -1.796875 8.921875 -1.796875 C 9.984375 -1.796875 10.867188 -2.039062 11.578125 -2.53125 C 12.285156 -3.019531 12.804688 -3.679688 13.140625 -4.515625 L 15.671875 -4.515625 C 15.265625 -3.109375 14.484375 -1.941406 13.328125 -1.015625 C 12.179688 -0.0976562 10.710938 0.359375 8.921875 0.359375 Z M 8.921875 -13.34375 C 7.703125 -13.34375 6.617188 -12.972656 5.671875 -12.234375 C 4.722656 -11.492188 4.175781 -10.410156 4.03125 -8.984375 L 13.5625 -8.984375 C 13.5 -10.347656 13.03125 -11.414062 12.15625 -12.1875 C 11.28125 -12.957031 10.203125 -13.34375 8.921875 -13.34375 Z M 8.921875 -13.34375 "/></g></g></g><g fill="#f4f4ee" fill-opacity="1"><g transform="translate(291.989569, 29.885)"><g><path d="M 3.75 6.71875 L 7.515625 -1.46875 L 6.625 -1.46875 L 0.609375 -15.15625 L 3.390625 -15.15625 L 8.40625 -3.359375 L 13.71875 -15.15625 L 16.375 -15.15625 L 6.453125 6.71875 Z M 3.75 6.71875 "/></g></g></g><g fill="#f4f4ee" fill-opacity="1"><g transform="translate(307.535879, 29.885)"><g><path d="M 9.015625 0.359375 C 7.585938 0.359375 6.300781 0.0351562 5.15625 -0.609375 C 4.019531 -1.265625 3.117188 -2.1875 2.453125 -3.375 C 1.796875 -4.5625 1.46875 -5.960938 1.46875 -7.578125 C 1.46875 -9.179688 1.800781 -10.578125 2.46875 -11.765625 C 3.144531 -12.960938 4.054688 -13.882812 5.203125 -14.53125 C 6.359375 -15.1875 7.648438 -15.515625 9.078125 -15.515625 C 10.492188 -15.515625 11.769531 -15.1875 12.90625 -14.53125 C 14.050781 -13.882812 14.957031 -12.960938 15.625 -11.765625 C 16.289062 -10.578125 16.625 -9.179688 16.625 -7.578125 C 16.625 -5.960938 16.285156 -4.5625 15.609375 -3.375 C 14.929688 -2.1875 14.019531 -1.265625 12.875 -0.609375 C 11.726562 0.0351562 10.441406 0.359375 9.015625 0.359375 Z M 9.015625 -1.828125 C 9.890625 -1.828125 10.703125 -2.039062 11.453125 -2.46875 C 12.203125 -2.894531 12.8125 -3.535156 13.28125 -4.390625 C 13.75 -5.253906 13.984375 -6.316406 13.984375 -7.578125 C 13.984375 -8.835938 13.753906 -9.894531 13.296875 -10.75 C 12.835938 -11.601562 12.234375 -12.242188 11.484375 -12.671875 C 10.734375 -13.097656 9.929688 -13.3125 9.078125 -13.3125 C 8.203125 -13.3125 7.382812 -13.097656 6.625 -12.671875 C 5.875 -12.242188 5.265625 -11.601562 4.796875 -10.75 C 4.328125 -9.894531 4.09375 -8.835938 4.09375 -7.578125 C 4.09375 -6.316406 4.328125 -5.253906 4.796875 -4.390625 C 5.265625 -3.535156 5.867188 -2.894531 6.609375 -2.46875 C 7.359375 -2.039062 8.160156 -1.828125 9.015625 -1.828125 Z M 9.015625 -1.828125 "/></g></g></g><g fill="#f4f4ee" fill-opacity="1"><g transform="translate(325.617357, 29.885)"><g><path d="M 2.109375 0 L 2.109375 -15.15625 L 4.421875 -15.15625 L 4.578125 -12.4375 C 5.066406 -13.394531 5.769531 -14.144531 6.6875 -14.6875 C 7.601562 -15.238281 8.644531 -15.515625 9.8125 -15.515625 C 11.601562 -15.515625 13.03125 -14.96875 14.09375 -13.875 C 15.164062 -12.789062 15.703125 -11.117188 15.703125 -8.859375 L 15.703125 0 L 13.140625 0 L 13.140625 -8.578125 C 13.140625 -11.734375 11.832031 -13.3125 9.21875 -13.3125 C 7.914062 -13.3125 6.832031 -12.835938 5.96875 -11.890625 C 5.101562 -10.953125 4.671875 -9.601562 4.671875 -7.84375 L 4.671875 0 Z M 2.109375 0 "/></g></g></g><g fill="#f4f4ee" fill-opacity="1"><g transform="translate(343.087958, 29.885)"><g><path d="M 8.984375 0.359375 C 7.472656 0.359375 6.148438 0.015625 5.015625 -0.671875 C 3.890625 -1.359375 3.015625 -2.300781 2.390625 -3.5 C 1.773438 -4.707031 1.46875 -6.078125 1.46875 -7.609375 C 1.46875 -9.128906 1.78125 -10.484375 2.40625 -11.671875 C 3.039062 -12.867188 3.914062 -13.804688 5.03125 -14.484375 C 6.15625 -15.171875 7.484375 -15.515625 9.015625 -15.515625 C 10.253906 -15.515625 11.351562 -15.257812 12.3125 -14.75 C 13.269531 -14.238281 14.015625 -13.523438 14.546875 -12.609375 L 14.546875 -22 L 17.109375 -22 L 17.109375 0 L 14.78125 0 L 14.546875 -2.5 C 14.054688 -1.769531 13.351562 -1.109375 12.4375 -0.515625 C 11.519531 0.0664062 10.367188 0.359375 8.984375 0.359375 Z M 9.25 -1.859375 C 10.269531 -1.859375 11.171875 -2.097656 11.953125 -2.578125 C 12.742188 -3.054688 13.359375 -3.722656 13.796875 -4.578125 C 14.234375 -5.429688 14.453125 -6.429688 14.453125 -7.578125 C 14.453125 -8.710938 14.234375 -9.707031 13.796875 -10.5625 C 13.359375 -11.425781 12.742188 -12.09375 11.953125 -12.5625 C 11.171875 -13.039062 10.269531 -13.28125 9.25 -13.28125 C 8.257812 -13.28125 7.367188 -13.039062 6.578125 -12.5625 C 5.796875 -12.09375 5.1875 -11.425781 4.75 -10.5625 C 4.3125 -9.707031 4.09375 -8.710938 4.09375 -7.578125 C 4.09375 -6.429688 4.3125 -5.429688 4.75 -4.578125 C 5.1875 -3.722656 5.796875 -3.054688 6.578125 -2.578125 C 7.367188 -2.097656 8.257812 -1.859375 9.25 -1.859375 Z M 9.25 -1.859375 "/></g></g></g><g fill="#f4f4ee" fill-opacity="1"><g transform="translate(362.268991, 29.885)"><g><path d="M 2.65625 -5.921875 L 2.359375 -21.390625 L 5.125 -21.390625 L 4.828125 -5.921875 Z M 3.8125 0.15625 C 3.3125 0.15625 2.890625 -0.0078125 2.546875 -0.34375 C 2.210938 -0.6875 2.046875 -1.101562 2.046875 -1.59375 C 2.046875 -2.082031 2.210938 -2.492188 2.546875 -2.828125 C 2.890625 -3.160156 3.3125 -3.328125 3.8125 -3.328125 C 4.300781 -3.328125 4.710938 -3.160156 5.046875 -2.828125 C 5.390625 -2.492188 5.5625 -2.082031 5.5625 -1.59375 C 5.5625 -1.101562 5.390625 -0.6875 5.046875 -0.34375 C 4.710938 -0.0078125 4.300781 0.15625 3.8125 0.15625 Z M 3.8125 0.15625 "/></g></g></g></g></g></svg>